HIERARCHY
ROOT root
{
	OFFSET 0.000000 0.000000 0.000000
	CHANNELS 6 Xposition Yposition Zposition Zrotation Yrotation Xrotation
	JOINT lhip
	{
		OFFSET 0.058581 -0.082280 -0.017664
		CHANNELS 3 Zrotation Yrotation Xrotation
		JOINT lknee
		{
			OFFSET 0.043451 -0.386469 0.008037
			CHANNELS 3 Zrotation Yrotation Xrotation
			JOINT lankle
			{
				OFFSET -0.014790 -0.426874 -0.037428
				CHANNELS 3 Zrotation Yrotation Xrotation
				JOINT ltoe
				{
					OFFSET 0.041054 -0.060286 0.122042
					CHANNELS 3 Zrotation Yrotation Xrotation
					End Site
					{
						OFFSET 0.000000 0.000000 0.000000
					}
				}
			}
		}
	}
	JOINT rhip
	{
		OFFSET -0.060310 -0.090513 -0.013543
		CHANNELS 3 Zrotation Yrotation Xrotation
		JOINT rknee
		{
			OFFSET -0.043257 -0.383688 -0.004843
			CHANNELS 3 Zrotation Yrotation Xrotation
			JOINT rankle
			{
				OFFSET 0.019056 -0.420046 -0.034562
				CHANNELS 3 Zrotation Yrotation Xrotation
				JOINT rtoe
				{
					OFFSET -0.034840 -0.062106 0.130323
					CHANNELS 3 Zrotation Yrotation Xrotation
					End Site
					{
						OFFSET 0.000000 0.000000 0.000000
					}
				}
			}
		}
	}
	JOINT lowerback
	{
		OFFSET 0.004439 0.124404 -0.038385
		CHANNELS 3 Zrotation Yrotation Xrotation
		JOINT upperback
		{
			OFFSET 0.004488 0.137956 0.026820
			CHANNELS 3 Zrotation Yrotation Xrotation
			JOINT chest
			{
				OFFSET -0.002265 0.056032 0.002855
				CHANNELS 3 Zrotation Yrotation Xrotation
				JOINT lowerneck
				{
					OFFSET -0.013390 0.211636 -0.033468
					CHANNELS 3 Zrotation Yrotation Xrotation
					JOINT upperneck
					{
						OFFSET 0.010113 0.088937 0.050410
						CHANNELS 3 Zrotation Yrotation Xrotation
						End Site
						{
							OFFSET 0.000000 0.000000 0.000000
						}
					}
				}
				JOINT lclavicle
				{
					OFFSET 0.071702 0.114000 -0.018898
					CHANNELS 3 Zrotation Yrotation Xrotation
					JOINT lshoulder
					{
						OFFSET 0.122921 0.045205 -0.019046
						CHANNELS 3 Zrotation Yrotation Xrotation
						JOINT lelbow
						{
							OFFSET 0.255332 -0.015649 -0.022946
							CHANNELS 3 Zrotation Yrotation Xrotation
							JOINT lwrist
							{
								OFFSET 0.265709 0.012698 -0.007375
								CHANNELS 3 Zrotation Yrotation Xrotation
								End Site
								{
									OFFSET 0.000000 0.000000 0.000000
								}
							}
						}
					}
				}
				JOINT rclavicle
				{
					OFFSET -0.082954 0.112472 -0.023707
					CHANNELS 3 Zrotation Yrotation Xrotation
					JOINT rshoulder
					{
						OFFSET -0.113228 0.046853 -0.008472
						CHANNELS 3 Zrotation Yrotation Xrotation
						JOINT relbow
						{
							OFFSET -0.260127 -0.014369 -0.031269
							CHANNELS 3 Zrotation Yrotation Xrotation
							JOINT rwrist
							{
								OFFSET -0.269108 0.006794 -0.006027
								CHANNELS 3 Zrotation Yrotation Xrotation
								End Site
								{
									OFFSET 0.000000 0.000000 0.000000
								}
							}
						}
					}
				}
			}
		}
	}
}
MOTION
Frames: 7
Frame Time: 0.033333
-0.031349 -0.084196 0.985543 7.593305 2.590786 102.364881 7.265191 5.778581 -7.389301 -6.764459 0.663693 -9.412291 0.202541 10.564329 -7.621254 0.000000 -0.000000 0.000000 -4.986040 -6.471574 -10.122675 2.587644 -6.436993 4.030845 8.602284 -8.932564 -7.342133 0.000000 -0.000000 0.000000 -1.690449 -0.295622 8.578163 -0.139838 -1.058246 -7.143610 -1.118221 -2.466323 2.715168 -1.066611 -8.929198 0.130260 -3.328000 -15.656532 7.593081 -18.175257 17.600995 -1.930797 -47.406130 -3.314953 13.513127 -13.078525 -42.544969 35.861709 -16.585675 -13.685553 -5.003017 17.099388 -14.085710 -9.696825 50.029114 -5.347160 19.637642 10.285982 37.724747 27.602987 14.496435 7.141548 -3.853518 
-0.031358 -0.084211 0.985490 7.621028 2.596943 102.395199 7.269265 5.790434 -7.408728 -6.767124 0.675381 -9.449050 0.189784 10.546960 -7.571337 0.000000 -0.000000 0.000000 -4.976582 -6.490058 -10.136828 2.589190 -6.440861 4.008353 8.608539 -8.925715 -7.314274 0.000000 -0.000000 0.000000 -1.715537 -0.311887 8.571295 -0.143919 -1.066327 -7.135892 -1.129498 -2.470756 2.730448 -1.060441 -8.931464 0.159271 -3.345607 -15.666947 7.649645 -18.206528 17.635758 -1.939742 -47.424934 -3.324226 13.521711 -13.077961 -42.610547 35.889425 -16.603741 -13.664214 -4.990465 17.111581 -14.115896 -9.691809 50.033362 -5.356082 19.647792 10.263820 37.757237 27.579191 14.502260 7.146419 -3.867525 
-0.031330 -0.084144 0.985411 7.645810 2.612990 102.436365 7.280050 5.800531 -7.446658 -6.768299 0.682173 -9.472028 0.175718 10.529229 -7.556237 0.000000 -0.000000 0.000000 -4.962820 -6.482637 -10.187856 2.590969 -6.450170 4.028677 8.610095 -8.927919 -7.315490 0.000000 -0.000000 0.000000 -1.726965 -0.340249 8.552224 -0.141246 -1.069322 -7.114048 -1.138821 -2.471107 2.747495 -1.039427 -8.940089 0.180088 -3.342945 -15.677240 7.650972 -18.243626 17.677232 -1.961707 -47.465073 -3.322823 13.549866 -13.076156 -42.674845 35.927880 -16.586080 -13.655289 -4.985252 17.126208 -14.151707 -9.704861 50.050976 -5.346217 19.651950 10.223035 37.761718 27.549249 14.474847 7.142175 -3.871119 
-0.031315 -0.083991 0.985333 7.657606 2.613746 102.458680 7.287148 5.796315 -7.492616 -6.785420 0.681625 -9.452219 0.185885 10.519096 -7.567033 0.000000 -0.000000 0.000000 -4.960756 -6.468926 -10.232091 2.581718 -6.462688 4.057534 8.610431 -8.930870 -7.341823 0.000000 -0.000000 0.000000 -1.753534 -0.360438 8.600165 -0.138096 -1.076349 -7.142205 -1.143889 -2.481580 2.767732 -1.026438 -8.928841 0.170064 -3.364977 -15.689444 7.695229 -18.298196 17.709421 -1.976988 -47.472127 -3.307853 13.581935 -13.132601 -42.726722 35.990444 -16.576442 -13.681287 -4.977763 17.165335 -14.174018 -9.735911 50.034055 -5.322379 19.676371 10.243060 37.754707 27.562872 14.474414 7.136312 -3.885774 
-0.031309 -0.083777 0.985281 7.634335 2.614865 102.485753 7.284667 5.794818 -7.525635 -6.794572 0.698664 -9.467962 0.197888 10.536268 -7.546011 0.000000 -0.000000 0.000000 -4.959570 -6.438502 -10.279835 2.576424 -6.475532 4.055190 8.607217 -8.932729 -7.342055 0.000000 -0.000000 0.000000 -1.775033 -0.358231 8.662464 -0.139943 -1.081954 -7.185471 -1.147053 -2.494972 2.778076 -1.051326 -8.900936 0.164567 -3.405779 -15.704204 7.758215 -18.323015 17.711386 -1.960270 -47.487390 -3.281466 13.617803 -13.209878 -42.737090 36.086878 -16.600952 -13.707051 -4.977086 17.198371 -14.172499 -9.745701 50.034229 -5.292167 19.701014 10.270697 37.750048 27.605866 14.477441 7.140955 -3.900903 
-0.031297 -0.083586 0.985264 7.607595 2.630078 102.526143 7.286823 5.817547 -7.548443 -6.791825 0.720738 -9.522655 0.184758 10.532111 -7.489923 0.000000 -0.000000 0.000000 -4.942468 -6.432255 -10.318936 2.574070 -6.480110 4.011037 8.613786 -8.918621 -7.291828 0.000000 -0.000000 0.000000 -1.774795 -0.365897 8.695322 -0.143356 -1.087005 -7.213804 -1.151178 -2.492747 2.794871 -1.088154 -8.870471 0.178839 -3.419128 -15.682049 7.766837 -18.333569 17.735714 -1.981062 -47.524182 -3.261195 13.657564 -13.280137 -42.702904 36.165762 -16.557788 -13.695940 -5.039790 17.217774 -14.194965 -9.771824 50.086382 -5.267420 19.719648 10.261842 37.735040 27.601444 14.426734 7.137469 -3.897087 
-0.031299 -0.083314 0.985267 7.562137 2.650391 102.569888 7.293487 5.845574 -7.607285 -6.792496 0.748025 -9.524707 0.178371 10.539055 -7.488177 0.000000 -0.000000 0.000000 -4.921729 -6.425936 -10.400840 2.572891 -6.474032 4.019462 8.632169 -8.891530 -7.260524 0.000000 -0.000000 0.000000 -1.769802 -0.369399 8.733748 -0.144531 -1.082804 -7.241634 -1.156831 -2.492092 2.810592 -1.119287 -8.821954 0.173813 -3.445698 -15.654259 7.802275 -18.346488 17.767939 -2.013496 -47.555964 -3.272218 13.657587 -13.307217 -42.627798 36.188528 -16.419096 -13.698030 -4.991428 17.233888 -14.225014 -9.794428 50.149706 -5.251101 19.735105 10.260112 37.765477 27.582980 14.327760 7.148258 -3.910658 
